<?xml version="1.0" encoding="UTF-8" standalone="no"?>
<!-- Generator: Adobe Illustrator 16.0.0, SVG Export Plug-In . SVG Version: 6.00 Build 0)  -->

<svg
   xmlns:dc="http://purl.org/dc/elements/1.1/"
   xmlns:cc="http://creativecommons.org/ns#"
   xmlns:rdf="http://www.w3.org/1999/02/22-rdf-syntax-ns#"
   xmlns:svg="http://www.w3.org/2000/svg"
   xmlns="http://www.w3.org/2000/svg"
   xmlns:sodipodi="http://sodipodi.sourceforge.net/DTD/sodipodi-0.dtd"
   xmlns:inkscape="http://www.inkscape.org/namespaces/inkscape"
   version="1.1"
   id="Layer_1"
   x="0px"
   y="0px"
   width="32px"
   height="32px"
   viewBox="0 0 32 32"
   enable-background="new 0 0 32 32"
   xml:space="preserve"
   sodipodi:docname="app.svg"
   inkscape:version="0.92.2 (5c3e80d, 2017-08-06)"><sodipodi:namedview
     pagecolor="#ffffff"
     bordercolor="#666666"
     borderopacity="1"
     objecttolerance="10"
     gridtolerance="10"
     guidetolerance="10"
     inkscape:pageopacity="0"
     inkscape:pageshadow="2"
     inkscape:window-width="697"
     inkscape:window-height="480"
     id="namedview8"
     showgrid="false"
     inkscape:zoom="7.375"
     inkscape:cx="16"
     inkscape:cy="16"
     inkscape:window-x="2341"
     inkscape:window-y="330"
     inkscape:window-maximized="0"
     inkscape:current-layer="Layer_1" /><metadata
     id="metadata12"><rdf:RDF><cc:Work
         rdf:about=""><dc:format>image/svg+xml</dc:format><dc:type
           rdf:resource="http://purl.org/dc/dcmitype/StillImage" /></cc:Work></rdf:RDF></metadata><defs
     id="defs10" /><g
     id="_x33_2"><path
       id="path2"
       d="M17.556,24.877c2.397-0.438,4.463-1.818,5.794-3.747c-0.698-0.488-1.91-0.874-3.116-1.379   c-1.55-0.647-1.917-0.87-1.917-0.87l-0.015-1.487c0,0,0.582-0.445,0.761-1.845c0.363,0.104,0.746-0.544,0.765-0.883   c0.021-0.329-0.05-1.241-0.492-1.149c0.091-0.687,0.156-1.303,0.123-1.63c-0.113-1.196-1.292-2.455-3.1-2.455   c-1.81,0-2.988,1.259-3.101,2.455c-0.032,0.328,0.032,0.944,0.123,1.63c-0.443-0.092-0.513,0.82-0.493,1.149   c0.021,0.339,0.401,0.987,0.765,0.883c0.179,1.4,0.763,1.845,0.763,1.845l-0.017,1.487c0,0-0.367,0.223-1.919,0.87   c-1.55,0.647-3.116,1.099-3.582,1.826c-0.006,0.013-0.011,0.026-0.019,0.037c1.408,1.772,3.467,2.997,5.815,3.32l1.449-2.568   L17.556,24.877z M16.143,20.369l0.999,0.998l-0.999,0.999l-0.999-0.999L16.143,20.369z"
       fill="#000000" /><path
       id="path4"
       d="M31.402,13.751l-3.352-0.396c-0.319-1.524-0.921-2.944-1.746-4.207l2.091-2.65   c0.148-0.187,0.132-0.481-0.04-0.65l-2.368-2.372c-0.173-0.17-0.466-0.188-0.655-0.037l-2.648,2.089   c-1.261-0.824-2.681-1.425-4.208-1.745l-0.394-3.352C18.053,0.195,17.834,0,17.593,0H14.24C14,0,13.782,0.195,13.751,0.432   l-0.396,3.352c-1.523,0.319-2.943,0.921-4.205,1.745L6.5,3.439c-0.189-0.15-0.481-0.133-0.65,0.037l-2.37,2.372   C3.307,6.017,3.287,6.312,3.439,6.5l2.089,2.649c-0.822,1.262-1.424,2.683-1.744,4.207l-3.349,0.396C0.196,13.779,0,14,0,14.239   v3.352c0,0.241,0.196,0.46,0.435,0.491l3.349,0.392C4.104,20,4.706,21.421,5.528,22.682l-2.089,2.652   c-0.152,0.188-0.132,0.48,0.04,0.649l2.37,2.372c0.168,0.17,0.462,0.186,0.651,0.037l2.65-2.09   c1.262,0.825,2.682,1.427,4.205,1.746l0.396,3.35c0.031,0.238,0.248,0.433,0.488,0.433h3.353c0.241,0,0.46-0.192,0.489-0.433   l0.394-3.35c1.527-0.319,2.947-0.921,4.208-1.746l2.648,2.09c0.189,0.148,0.482,0.133,0.655-0.037l2.368-2.372   c0.172-0.169,0.188-0.462,0.04-0.649l-2.091-2.652c0.825-1.261,1.427-2.682,1.746-4.208l3.352-0.395   c0.234-0.028,0.433-0.247,0.433-0.488v-3.352C31.835,14,31.637,13.779,31.402,13.751z M15.916,26.046   c-5.592,0-10.128-4.537-10.128-10.13c0-5.593,4.536-10.128,10.128-10.128c5.595,0,10.13,4.535,10.13,10.128   C26.046,21.509,21.511,26.046,15.916,26.046z"
       fill="#000000" /></g></svg>