<?xml version="1.0" encoding="UTF-8" standalone="no"?>
<!-- Generator: Adobe Illustrator 28.3.0, SVG Export Plug-In . SVG Version: 6.00 Build 0)  -->

<svg
   version="1.1"
   id="Calque_1"
   x="0px"
   y="0px"
   viewBox="0 0 1000 1000"
   style="enable-background:new 0 0 1000 1000;"
   xml:space="preserve"
   sodipodi:docname="openotp_auth_gray (2).svg"
   inkscape:version="1.2 (dc2aedaf03, 2022-05-15)"
   xmlns:inkscape="http://www.inkscape.org/namespaces/inkscape"
   xmlns:sodipodi="http://sodipodi.sourceforge.net/DTD/sodipodi-0.dtd"
   xmlns="http://www.w3.org/2000/svg"
   xmlns:svg="http://www.w3.org/2000/svg"><defs
   id="defs5383" /><sodipodi:namedview
   id="namedview5381"
   pagecolor="#ffffff"
   bordercolor="#000000"
   borderopacity="0.25"
   inkscape:showpageshadow="2"
   inkscape:pageopacity="0.0"
   inkscape:pagecheckerboard="0"
   inkscape:deskcolor="#d1d1d1"
   showgrid="false"
   inkscape:zoom="1.027"
   inkscape:cx="315.48199"
   inkscape:cy="499.51315"
   inkscape:window-width="2560"
   inkscape:window-height="1369"
   inkscape:window-x="-8"
   inkscape:window-y="-8"
   inkscape:window-maximized="1"
   inkscape:current-layer="Calque_1" />
<circle
   cx="488.7"
   cy="397.3"
   r="87.2"
   id="circle5368"
   style="fill:#4d4d4d;fill-opacity:1" />
<path
   d="M516.9,786.4c3.2-36.7,16.7-69.6,39.7-98.2c16.8-20.8,38.7-36.8,63.1-47.4c-34.1-41.2-80.2-66.5-131-66.5  c-88.9,0-163.5,77.3-184.1,181.6c-5.9,29.7,11.9,58.4,36,58.4h176.5C516.2,805.1,516.1,795.7,516.9,786.4z"
   id="path5370"
   style="fill:#4d4d4d;fill-opacity:1" />
<g
   id="g5374"
   style="fill:#4d4d4d;fill-opacity:1">
	<path
   d="M689,685.1c-62.8,0-113.7,50.9-113.7,113.7S626.1,912.5,689,912.5s113.7-50.9,113.7-113.7S751.8,685.1,689,685.1z    M748.4,779.4c-1.9,2.5-3.9,5-5.8,7.6c-13.6,17.8-27.2,35.6-40.7,53.4c-4.4,5.7-8.8,9.6-16.1,10.5c-6.9,0.9-13.6-1.1-18.6-6.1   c-11.4-11.4-22.9-22.9-34.3-34.3c-8.7-8.7-8.1-22.4,0-31.2c8.1-8.8,23.1-8.2,31.2,0c5.5,5.5,11,11,16.5,16.5   c9.9-12.9,19.7-25.8,29.6-38.8c3.7-4.8,7.4-8.3,13.2-10.1c5.7-1.8,11.9-0.5,17,2.2c4.8,2.5,8.7,8.1,10.1,13.2   C752,767.3,751.7,775.2,748.4,779.4z"
   id="path5372"
   style="fill:#4d4d4d;fill-opacity:1" />
</g>
<g
   id="g5378"
   style="fill:#4d4d4d;fill-opacity:1">
	<path
   d="M963.1,462.8c-16.5-93.7-96-154.6-179.2-155.4c-21.1-0.2-39.6-14.2-44.9-34.7C707.7,151.3,588.2,69.4,462.7,90.9   C355.3,109.4,287.3,174.7,259,280.5c-4.1,15.4-18,26.3-34,26.9c-11.6,0.5-23.2,0.4-34.9,2.3c-77.9,12.7-137.3,71.5-152.9,152.1   C23.2,534,60.5,613.2,126.1,652c34.9,20.7,72.5,26.1,111.5,25.5l22.2-0.2c7.9-28.4,22.1-54.1,41.5-76.2   c21.7-24.7,50.9-44.6,80.5-58.7c13.4-6.4,27.2-11.6,41.3-15.7c-20.4-10.4-38.6-25.5-52.8-44.7c-36.7-49.5-36.1-122.2,1.2-171.1   c20.3-26.7,48.3-46.7,81.1-54.9c29-7.2,60.8-5.8,88.6,5.5c55.6,22.6,92.5,75.3,93.1,135.7c-0.5,54.5-31.7,104.9-79.1,129.5   c41.2,11.9,79.8,34.2,110.4,63.5c11.3,10.8,21,22.9,29.2,35.9c17.4,0.5,34.8,3.6,51.2,9.7c21.9,8,41.5,20.1,58.1,35.2   c72.3-9.4,134.6-59.4,154.7-130.6C966,515.7,967.8,489.2,963.1,462.8z"
   id="path5376"
   style="fill:#4d4d4d;fill-opacity:1" />
</g>
</svg>
