<?xml version="1.0" encoding="utf-8"?>
<!-- Generator: Adobe Illustrator 28.3.0, SVG Export Plug-In . SVG Version: 6.00 Build 0)  -->
<svg version="1.1" id="Calque_1" xmlns="http://www.w3.org/2000/svg" xmlns:xlink="http://www.w3.org/1999/xlink" x="0px" y="0px"
	 viewBox="0 0 634.2 282.7" style="enable-background:new 0 0 634.2 282.7;" xml:space="preserve">
<style type="text/css">
	.OpenOtpAuth_st0{fill:#EF8207;}
	.OpenOtpAuth_st1{fill:#EE8620;}
	.OpenOtpAuth_st2{fill:#FFFFFF;}
</style>
<g>
	<g>
		<g>
			<path class="OpenOtpAuth_st0" d="M483.6,195c-6.4,0-12.8,0-19.3,0c-16.5,0-33,0-49.6,0c-22.4,0-44.8,0-67.1,0c-24.4,0-48.8,0-73.2,0
				c-22.1,0-44.1,0-66.2,0c-15.9,0-31.8,0-47.7,0c-4.3,0-8.6,0-12.9,0c-1,0-2,0-3,0c-0.2,0-0.4,0-0.6,0c-0.4,0-0.8,0-1.2,0
				c-0.9,0-1.9-0.2-2.8-0.2c3.4,0.1,1.7,0.2,0.7,0.1c-0.7-0.1-1.4-0.3-2.1-0.5c-0.9-0.2-1.7-0.5-2.6-0.8c-0.5-0.2-1-0.4-1.5-0.6
				c3,1,1.7,0.8,0.9,0.4c-1.8-1-3.6-2-5.2-3.1c-1.7-1.2,2.1,1.8,0.6,0.4c-0.4-0.4-0.8-0.7-1.2-1c-0.6-0.6-1.3-1.2-1.9-1.9
				c-0.4-0.4-0.7-0.8-1-1.2c-1.4-1.5,1.6,2.3,0.4,0.6c-0.6-0.9-1.2-1.7-1.8-2.7c-0.5-0.8-0.9-1.5-1.3-2.3s-0.8-2.5,0.2,0.7
				c-0.2-0.5-0.4-1-0.6-1.5c-0.3-0.9-0.6-1.7-0.8-2.6c-0.1-0.5-0.3-1.1-0.4-1.6c-0.2-0.9-0.3-3.6-0.1,0.2c-0.1-1.5-0.2-2.9-0.2-4.4
				c0-5.8,0-11.6,0-17.4c0-22.9,0-45.8,0-68.7c0-8,0-16.1,0-24.1c0-1.2,0-2.4,0-3.6c0-0.9,0-1.9,0.1-2.8c0.1-1,0.7-2.5-0.1,0.7
				c0.1-0.5,0.2-1.1,0.3-1.6c0.2-0.9,0.4-1.8,0.7-2.6c0.2-0.5,0.3-1,0.5-1.5c0.3-1,1.6-2.9-0.1,0.1c1-1.7,1.7-3.5,2.9-5.1
				c0.2-0.3,0.4-0.6,0.6-0.9c1.2-1.7-1.8,2.1-0.4,0.6c0.7-0.8,1.4-1.6,2.2-2.3s1.6-1.4,2.4-2.1c-2.1,2.1-1.5,1.1-0.8,0.6
				c0.4-0.2,0.7-0.5,1.1-0.8c0.9-0.6,1.8-1.1,2.7-1.6c0.3-0.2,0.6-0.3,1-0.5c2.6-1.2-2,0.7-0.2,0c1.9-0.7,3.8-1.3,5.7-1.6
				c0.9-0.2,2.8-0.2-0.7,0.1c0.4,0,0.7-0.1,1.1-0.1c0.9-0.1,1.9-0.1,2.8-0.1c0.5,0,0.9,0,1.4,0c3.3,0,6.6,0,10,0
				c14.5,0,28.9,0,43.4,0c21.3,0,42.6,0,63.9,0c24.3,0,48.6,0,72.9,0c23,0,45.9,0,68.9,0c17.8,0,35.6,0,53.4,0c8.4,0,16.7,0,25.1,0
				c0.2,0,0.4,0,0.5,0c0.6,0,1.2,0,1.7,0c0.6,0,1.1,0.1,1.7,0.1c2.2,0.2-2.8-0.5-0.7-0.1c1.1,0.2,2.1,0.4,3.2,0.7
				c0.9,0.2,1.7,0.5,2.6,0.8s2.2,1.3-0.6-0.3c0.5,0.3,1,0.5,1.4,0.7c0.8,0.4,1.6,0.8,2.3,1.3c0.5,0.3,0.9,0.6,1.3,0.9
				c0.9,0.6,2.3,2.3-0.1-0.1c1.3,1.3,2.8,2.4,4,3.8c0.3,0.3,0.5,0.7,0.9,1c-2.2-2.2-1-1.3-0.4-0.5c0.6,0.9,1.2,1.8,1.7,2.7
				s0.9,1.9,1.4,2.9c-1.8-3.1-0.3-0.7,0.1,0.4c0.3,1,0.6,2.1,0.9,3.1c0.1,0.4,0.2,0.7,0.2,1.1c0.5,2.9-0.1-2.1,0-0.2
				c0.1,1.3,0.2,2.6,0.2,3.9c0,2,0,4.1,0,6.1c0,21.1,0,42.3,0,63.4c0,15,0.3,29.9,0,44.9c0,1.1-0.2,2.2-0.2,3.4
				c0.2-3.8,0.1-0.7-0.2,0.3c-0.2,1.1-0.5,2.1-0.9,3.1c-0.3,1-1.9,3.5-0.1,0.4c-1,1.7-1.7,3.5-2.9,5.1c-0.3,0.4-0.6,0.9-0.9,1.3
				c1.8-2.6,1.1-1.4,0.6-0.8c-0.7,0.7-1.3,1.4-2,2.1c-0.6,0.6-1.3,1.2-2,1.8c-1.5,1.4,2.3-1.6,0.6-0.4c-0.4,0.3-0.9,0.6-1.3,0.9
				c-0.7,0.5-1.5,0.9-2.3,1.4c-1,0.5-4.4,1.7-0.7,0.5c-1.9,0.6-3.7,1.3-5.7,1.7c-0.4,0.1-0.7,0.1-1.1,0.2c-2.1,0.4,2.9-0.3,0.7-0.1
				C485.9,194.9,484.8,195,483.6,195c-5.8,0-11.3,5-11,11c0.3,5.9,4.8,11.1,11,11c20.7-0.2,39.9-15.5,43-36.3
				c0.9-6.3,0.7-12.5,0.7-18.8c0-22.5,0-45,0-67.5c0-9.4,0-18.8,0-28.2c0-2.2,0-4.4,0-6.6c0-6.9-1.5-13.3-4.3-19.6
				c-6.9-15.2-23.1-24.7-39.6-24.8c-2.4,0-4.8,0-7.1,0c-13.2,0-26.4,0-39.6,0c-20.9,0-41.9,0-62.8,0c-24.4,0-48.9,0-73.3,0
				c-23.7,0-47.3,0-71,0c-18.7,0-37.3,0-56,0c-9.4,0-18.8,0-28.2,0c-11.6,0-22.6,4-31.2,11.9c-7.9,7.3-12.3,17.3-13.5,27.9
				c-0.2,2.2-0.2,4.4-0.2,6.7c0,19.6,0,39.3,0,58.9c0,17.4,0,34.8,0,52.2c0,16.8,9.6,33.3,25.3,40.1c6,2.6,12.1,4.1,18.7,4.1
				c0.8,0,1.6,0,2.5,0c10.7,0,21.4,0,32.1,0c19.4,0,38.8,0,58.2,0c24,0,47.9,0,71.9,0c24.2,0,48.5,0,72.7,0c20.3,0,40.6,0,60.8,0
				c12.1,0,24.1,0,36.2,0c1.6,0,3.2,0,4.9,0c5.8,0,11.3-5.1,11-11C494.4,200,489.8,195,483.6,195z"/>
		</g>
	</g>
	<g>
		<g>
			<path class="OpenOtpAuth_st0" d="M612.5,156c-3.2,0-6.4,0-9.6,0c-7.6,0-15.3,0-22.9,0c-9.3,0-18.6,0-27.8,0c-8,0-16,0-24,0
				c-3.9,0-7.8-0.1-11.7,0c-0.1,0-0.1,0-0.2,0c3.7,3.7,7.3,7.3,11,11c0-3.4,0-6.8,0-10.2c0-8.1,0-16.2,0-24.2c0-9.8,0-19.6,0-29.4
				c0-8.4,0-16.9,0-25.3c0-4.1,0.1-8.2,0-12.4c0-0.1,0-0.1,0-0.2c-3.7,3.7-7.3,7.3-11,11c3.2,0,6.4,0,9.6,0c7.6,0,15.3,0,22.9,0
				c9.3,0,18.6,0,27.8,0c8,0,16,0,24,0c3.9,0,7.8,0.1,11.7,0c0.1,0,0.1,0,0.2,0c-3.7-3.7-7.3-7.3-11-11c0,3.4,0,6.8,0,10.2
				c0,8.1,0,16.2,0,24.2c0,9.8,0,19.6,0,29.4c0,8.4,0,16.9,0,25.3c0,4.1-0.1,8.2,0,12.4c0,0.1,0,0.1,0,0.2c0,2.8,1.2,5.8,3.2,7.8
				c1.9,1.9,5,3.3,7.8,3.2c6-0.3,11-4.8,11-11c0-3.4,0-6.8,0-10.2c0-8.1,0-16.2,0-24.2c0-9.8,0-19.6,0-29.4c0-8.4,0-16.9,0-25.3
				c0-4.1,0.1-8.2,0-12.4c0-0.1,0-0.1,0-0.2c0-6-5-11-11-11c-3.2,0-6.4,0-9.6,0c-7.6,0-15.3,0-22.9,0c-9.3,0-18.6,0-27.8,0
				c-8,0-16,0-24,0c-3.9,0-7.8-0.1-11.7,0c-0.1,0-0.1,0-0.2,0c-6,0-11,5-11,11c0,3.4,0,6.8,0,10.2c0,8.1,0,16.2,0,24.2
				c0,9.8,0,19.6,0,29.4c0,8.4,0,16.9,0,25.3c0,4.1-0.1,8.2,0,12.4c0,0.1,0,0.1,0,0.2c0,6,5,11,11,11c3.2,0,6.4,0,9.6,0
				c7.6,0,15.3,0,22.9,0c9.3,0,18.6,0,27.8,0c8,0,16,0,24,0c3.9,0,7.8,0.1,11.7,0c0.1,0,0.1,0,0.2,0c2.8,0,5.8-1.2,7.8-3.2
				c1.9-1.9,3.3-5,3.2-7.8C623.3,161,618.7,156,612.5,156z"/>
		</g>
	</g>
	<g>
		<g>
			<path class="OpenOtpAuth_st0" d="M428.9,116.2c0,2.3-0.2,4.6-0.5,6.9c0.1-1,0.3-2,0.4-2.9c-0.6,4.5-1.8,8.8-3.6,12.9c0.4-0.9,0.7-1.8,1.1-2.6
				c-1.7,4-4,7.8-6.7,11.3c0.6-0.7,1.1-1.5,1.7-2.2c-2.6,3.4-5.6,6.4-9,9c0.7-0.6,1.5-1.1,2.2-1.7c-3.5,2.7-7.3,4.9-11.3,6.7
				c0.9-0.4,1.8-0.7,2.6-1.1c-4.1,1.7-8.5,2.9-12.9,3.6c1-0.1,2-0.3,2.9-0.4c-4.6,0.6-9.3,0.6-13.9,0c1,0.1,2,0.3,2.9,0.4
				c-4.5-0.6-8.8-1.8-12.9-3.6c0.9,0.4,1.8,0.7,2.6,1.1c-4-1.7-7.8-4-11.3-6.7c0.7,0.6,1.5,1.1,2.2,1.7c-3.4-2.6-6.4-5.6-9-9
				c0.6,0.7,1.1,1.5,1.7,2.2c-2.7-3.5-4.9-7.3-6.7-11.3c0.4,0.9,0.7,1.8,1.1,2.6c-1.7-4.1-2.9-8.5-3.6-12.9c0.1,1,0.3,2,0.4,2.9
				c-0.6-4.6-0.6-9.3,0-13.9c-0.1,1-0.3,2-0.4,2.9c0.6-4.5,1.8-8.8,3.6-12.9c-0.4,0.9-0.7,1.8-1.1,2.6c1.7-4,4-7.8,6.7-11.3
				c-0.6,0.7-1.1,1.5-1.7,2.2c2.6-3.4,5.6-6.4,9-9c-0.7,0.6-1.5,1.1-2.2,1.7c3.5-2.7,7.3-4.9,11.3-6.7c-0.9,0.4-1.8,0.7-2.6,1.1
				c4.1-1.7,8.5-2.9,12.9-3.6c-1,0.1-2,0.3-2.9,0.4c4.6-0.6,9.3-0.6,13.9,0c-1-0.1-2-0.3-2.9-0.4c4.5,0.6,8.8,1.8,12.9,3.6
				c-0.9-0.4-1.8-0.7-2.6-1.1c4,1.7,7.8,4,11.3,6.7c-0.7-0.6-1.5-1.1-2.2-1.7c3.4,2.6,6.4,5.6,9,9c-0.6-0.7-1.1-1.5-1.7-2.2
				c2.7,3.5,4.9,7.3,6.7,11.3c-0.4-0.9-0.7-1.8-1.1-2.6c1.7,4.1,2.9,8.5,3.6,12.9c-0.1-1-0.3-2-0.4-2.9
				C428.8,111.5,428.9,113.8,428.9,116.2c0,2.8,1.2,5.8,3.2,7.8c1.9,1.9,5,3.3,7.8,3.2c6-0.3,11-4.8,11-11c0-12.4-3.8-25.1-11-35.2
				c-2-2.8-4.1-5.5-6.5-8s-5.1-4.6-7.8-6.7c-4.9-3.7-10.4-6.4-16.2-8.5c-11.7-4.3-25.2-4.5-37.2-1.1c-11.6,3.3-22.6,10.2-30.3,19.6
				c-2.2,2.7-4.3,5.4-6.1,8.4c-1.8,3-3.2,6.2-4.5,9.4c-2.4,5.8-3.5,12-4,18.2c-1,12.4,2.3,25.3,8.7,35.9
				c6.2,10.3,15.7,19.1,26.7,24.1c3.2,1.4,6.5,2.8,9.8,3.7c3.5,1,7,1.5,10.6,1.9c6.3,0.7,12.6,0.2,18.8-1
				c11.9-2.4,23.3-8.8,31.7-17.6c8.4-8.8,14.6-20.3,16.4-32.4c0.5-3.5,0.9-7,1-10.5c0-2.8-1.2-5.8-3.2-7.8c-1.9-1.9-5-3.3-7.8-3.2
				C433.9,105.4,428.9,110,428.9,116.2z"/>
		</g>
	</g>
</g>
<g>
	<path class="OpenOtpAuth_st1" d="M381.5,265.1h-272c-17.4,0-31.6-14.1-31.6-31.6v-95.2c0-17.4,14.1-31.6,31.6-31.6h272
		c17.4,0,31.6,14.1,31.6,31.6v95.2C413.1,251,398.9,265.1,381.5,265.1z"/>
	<path d="M296.3,265.1H45.2c-17.4,0-31.6-14.1-31.6-31.6v-95.2c0-17.4,14.1-31.6,31.6-31.6h251.1c17.4,0,31.6,14.1,31.6,31.6v95.2
		C327.9,251,313.7,265.1,296.3,265.1z"/>
	<g>
		<path class="OpenOtpAuth_st1" d="M193.2,177.1c0-0.8,0-1.3,0-1.7c0-11.3,0-22.6,0-33.9c0-1.1,0.3-1.4,1.4-1.4c6.1,0.1,12.2,0,18.3,0
			c0.9,0,1.2,0.2,1.2,1.2c0,31.8,0,63.5,0,95.3c0,1-0.3,1.3-1.3,1.2c-5.2,0-10.3,0-15.5,0c-1,0-1.3-0.3-1.4-1.3
			c-0.3-2.7-0.7-5.4-1.1-8.3c-0.8,1-1.4,2-2.1,2.8c-4,4.8-9.4,7.3-15.5,8c-8.2,0.9-15.4-1.4-21.4-7.1c-4.8-4.5-7.7-10.1-9.1-16.5
			c-2.4-10.8-1.8-21.3,3.7-31.1c4.5-8.1,11.4-13.3,20.7-14.7c6.8-1,13.3-0.2,19,4.1C191.2,174.7,192.1,175.7,193.2,177.1z
			 M193.2,204.8c0-2.8,0-4.8,0-6.7c-0.1-5.8-3.8-10.9-9.1-12.4c-5.8-1.6-11.7,0.7-14.5,6c-4.1,7.6-4.2,15.5-0.8,23.4
			c1.8,4.2,5.2,6.7,9.9,7.5c6.9,1.2,13.5-3.7,14.4-10.7C193.3,209.3,193.1,206.6,193.2,204.8z"/>
		<path class="OpenOtpAuth_st2" d="M259.5,169.4c8.8,0.1,16.7,2.4,23.4,8.3c5.4,4.8,8.6,10.9,9.9,17.9c1.5,8.1,1,16.1-2.2,23.8
			c-3.5,8.5-9.8,14.3-18.5,17.4c-9.3,3.4-18.8,3.4-28-0.2c-11.5-4.5-17.8-13.3-19.7-25.3c-1.3-8-0.5-15.9,3-23.3
			c4.6-9.8,12.5-15.3,22.9-17.6C253.4,169.7,256.5,169.5,259.5,169.4z M272.2,204.4c0-3.5-0.4-7.9-2.2-12c-1.5-3.4-3.7-6.2-7.3-7.5
			c-5.5-1.9-11.3,0.5-14.3,5.9c-2.9,5.3-3.4,11.1-2.9,16.9c0.3,3.5,1.1,6.9,2.9,10.1c2.4,4.2,5.9,6.6,10.8,6.5
			c5-0.1,8.2-2.9,10.4-7.1C271.4,213.5,272.1,209.5,272.2,204.4z"/>
		<path class="OpenOtpAuth_st2" d="M54.6,212c0-8.1,0-16.3,0-24.4c0-1-0.2-1.3-1.2-1.2c-3.5,0.1-7,0-10.5,0c-0.9,0-1.2-0.1-1.2-1.1
			c0.1-4.4,0-8.7,0-13.1c0-0.8,0.2-1,1.1-1c3.6,0,7.2,0,10.8,0c0.8,0,1-0.2,1-1c0-4.1-0.2-8.2,0.4-12.3c1.9-12,10.2-20.6,22.1-23
			c6.8-1.3,13.4-0.9,20,1c0.9,0.2,1.2,0.5,0.9,1.5c-1.5,5-3,9.9-4.4,14.9c-0.2,0.9-0.6,1.1-1.5,0.8c-3.4-0.9-6.9-1.1-10.3-0.1
			c-3.8,1.1-6.3,4.2-6.5,8.2c-0.2,3.1,0,6.1-0.1,9.2c0,0.8,0.4,0.8,0.9,0.8c3.6,0,7.1,0,10.7,0c0.9,0,1.3,0.1,1.3,1.2
			c-0.1,4.3-0.1,8.6,0,12.8c0,1.1-0.4,1.2-1.3,1.2c-3.4,0-6.9,0-10.3,0c-1,0-1.3,0.2-1.3,1.3c0,16.2,0,32.4,0.1,48.6
			c0,1.2-0.2,1.6-1.6,1.6c-6-0.1-12-0.1-18,0c-0.9,0-1.1-0.3-1.1-1.1C54.6,228.5,54.6,220.2,54.6,212z"/>
		<path class="OpenOtpAuth_st1" d="M136.3,204.5c0,10.7,0,21.3,0,32c0,1-0.2,1.4-1.3,1.3c-1.7-0.1-3.4-0.1-5,0c-1.1,0.1-1.3-0.4-1.3-1.4
			c0-8.8,0-17.5,0.1-26.3c0-1.3-0.3-1.7-1.6-1.6c-1.3,0.2-2.9-0.5-3.7,0.3c-0.7,0.8-0.2,2.4-0.2,3.6c0,8,0,16,0,24
			c0,1-0.3,1.3-1.3,1.2c-1.8-0.1-3.6,0-5.4,0c-0.7,0-0.9-0.2-0.9-0.9c0-0.8,0-1.7,0-2.5c0-15.5,0-31,0-46.4c0-1.3-0.4-1.6-1.6-1.6
			c-6,0.1-12.1,0-18.1,0c-0.9,0-1.3-0.1-1.2-1.1c0.1-4.4,0-8.7,0-13.1c0-0.8,0.2-1.1,1.1-1.1c13.1,0,26.3,0,39.4,0
			c1.1,0,1.1,0.4,1.1,1.3C136.3,183.1,136.3,193.8,136.3,204.5z"/>
		<path class="OpenOtpAuth_st1" d="M137.6,150.2c0,6.5-5.2,11.6-11.7,11.6c-6.4,0-11.6-5.2-11.5-11.6c0-6.5,5.2-11.6,11.7-11.6
			C132.5,138.6,137.6,143.8,137.6,150.2z"/>
		<path class="OpenOtpAuth_st2" d="M295.2,166.8c0.6-1.8,1.2-3.1,1.6-4.6c0.3-1.2,1.2-0.8,1.9-0.8c0.9,0,0.5,0.7,0.5,1.1c0,1.8,0,3.7,0,5.5
			c0,0.4,0.1,0.9-0.6,0.9c-0.8,0-0.7-0.5-0.7-1c0-1.3,0-2.7,0-4c-0.1,0-0.2,0-0.4,0c-0.5,1.4-1,2.8-1.5,4.2
			c-0.1,0.4-0.2,0.9-0.9,0.9c-0.7,0-0.8-0.5-1-0.9c-0.5-1.5-1.1-3.1-1.8-4.6c0,1.5,0,3.1,0,4.6c0,0.5,0.1,0.9-0.7,0.9
			c-0.7,0-0.7-0.4-0.7-0.9c0-1.9,0-3.8,0-5.7c0-0.4-0.3-1.1,0.5-1c0.7,0,1.6-0.5,2,0.7C294,163.7,294.6,165,295.2,166.8z"/>
		<path class="OpenOtpAuth_st2" d="M286.4,161.5c0.8,0,1.6,0,2.4,0c0.4,0,0.8-0.1,0.8,0.6c0,0.6-0.3,0.7-0.8,0.7c-1.7,0.1-1.7,0.1-1.7,1.8
			c0,1.3,0,2.5,0,3.8c0,0.6-0.3,0.8-0.8,0.8c-0.6,0-0.7-0.2-0.7-0.7c0-1.6,0-3.1,0-4.7c0-0.8-0.2-1.1-1-1c-0.3,0-0.6,0-0.9,0
			c-0.5,0-0.7-0.2-0.7-0.6c0-0.5,0.2-0.7,0.6-0.7C284.6,161.5,285.5,161.5,286.4,161.5z"/>
	</g>
	<g>
		<path class="OpenOtpAuth_st2" d="M364.5,131.9h22v9.1h-21.7c-7.5,0-10.5,3.3-10.5,8.8c0,5.6,3.1,8.8,10.5,8.8h21.7v9h-22
			c-11.6,0-17.9-6.6-17.9-17.8S353,131.9,364.5,131.9z"/>
		<path class="OpenOtpAuth_st2" d="M354.7,203.4h-7.4v-29.7h5.9l14.3,15.1c3.3,3.5,5.3,4.1,7.2,4.1c3.1,0,4.9-2.1,4.9-6.3c0-3.4-1.3-6.2-3.9-8.1
			l4.3-6.6c4.4,3,7.3,8.5,7.3,15.6c0,8.8-4.5,14.6-11.6,14.6c-3.8,0-7.3-1.1-12.4-6.6l-8.5-9L354.7,203.4L354.7,203.4z"/>
		<path class="OpenOtpAuth_st2" d="M379.2,218.7h-10.4v18.2h-7.3v-18.2h-14.3v-9.1h39.3v29.7h-7.3L379.2,218.7L379.2,218.7z"/>
	</g>
</g>
</svg>
